<svg xmlns="http://www.w3.org/2000/svg" width="512" height="512" fill="none"><rect width="512" height="512" fill="#FFFCF0" rx="133"/><path fill="#000" d="M420.792 321.916q-4.863 1.792-8.192 1.792-3.072-.255-6.912-3.072-4.863-4.608-3.328-9.216 1.793-4.863 8.448-9.472 4.608-2.816 6.656-3.072 2.304-.255 6.912 1.792 7.68 4.865 6.656 10.752-.768 5.888-10.24 10.496M278.7 344.7q-3.327-2.047-3.584-4.096-.255-1.791 1.28-7.168-.255-3.327.256-6.144.768-2.815 1.024-3.84 1.281 0 1.536-1.536t.256-2.56q0-2.048 1.536-6.912a96 96 0 0 0 3.072-9.984q2.049-5.12 3.84-9.472 2.049-4.608 2.048-5.632 0-2.047 1.024-4.096a35 35 0 0 1 2.304-4.352q1.28-3.072 1.792-6.656.768-3.84.768-5.888 1.537-3.328 3.328-7.168a44 44 0 0 0 2.816-7.936q1.536-4.351 4.352-12.544a1123 1123 0 0 1 6.4-17.152 299 299 0 0 0 4.608-10.24 326 326 0 0 1 4.096-9.216q1.792-3.84 2.56-3.84v-2.816q0-1.28 2.048-4.864a113 113 0 0 0 3.84-7.936q2.56-3.84 3.584-7.168l1.024-3.584.768-1.536q1.025-1.536 2.048-2.56 3.329-2.304 6.144-1.792 3.072.513 5.12 4.864 2.049 4.096 1.792 6.912-.255 2.56-2.304 5.632a807 807 0 0 1-5.376 11.776 1639 1639 0 0 0-7.168 15.104 6439 6439 0 0 0-6.912 15.36q-3.072 7.168-5.12 12.544-1.792 5.12-1.792 6.4l-10.496 25.856q0 .513-1.024 2.56l-2.304 6.144q-1.28 4.096-3.328 10.752a1858 1858 0 0 0-4.864 16.128 4593 4593 0 0 0-7.936 25.6q-2.816 8.961-4.608 12.288-1.536 3.584-3.328 3.584-1.023 0-2.304-1.024-1.023-.768-2.816-1.792m90.368 2.048q-2.304.257-6.4-2.304-3.84-2.303-8.448-5.888a175 175 0 0 1-8.448-7.424q-3.84-3.84-6.144-6.656-4.095-5.888-10.24-15.36a77.8 77.8 0 0 1-9.216-20.736q-1.791-8.192-3.584-12.8-1.791-4.863-2.304-7.936l.256-17.92 13.056 4.096q1.281 13.824 3.84 23.04 2.816 8.96 6.656 15.872a165 165 0 0 0 6.912 13.312q3.84 6.4 8.192 10.752 5.889 6.4 10.496 9.472t6.912 3.072q1.28.256 3.584 1.792a32 32 0 0 1 4.608 3.328q2.305 1.536 2.56 3.072.256.768.256 2.304 0 1.793-.512 3.072-.255 1.536-.768 2.304-.768 1.793-2.816 3.072-1.791 1.536-8.448-1.536m-57.344-94.976 18.688-13.568q.768-.767 5.376-5.12 4.865-4.351 15.872-12.544l31.488-25.6q6.4-3.327 13.056-8.448 6.912-5.12 10.496-7.424 4.353-3.072 7.68-5.376 3.329-2.303 4.352-2.048 2.049-1.023 4.096.768 2.304 1.536 3.584 4.352 1.536 2.56 1.28 4.608.512 2.56-1.024 4.352t-7.424 5.12q-4.863 2.304-8.704 4.608-3.584 2.304-4.352 3.84l-4.864 3.84q-4.608 3.585-12.032 8.704-10.239 6.657-17.664 12.544-7.167 5.888-9.216 8.96-1.023 0-2.048.768-.768.768-1.792.512l-2.048 1.28q-1.791 1.28-2.816 2.56-.512 1.28-2.304 3.584-1.536 2.304-4.096 2.048-1.792 1.025-6.4 4.352a216 216 0 0 0-9.728 6.912q-4.863 3.84-8.448 6.912t-3.84 3.584zM242.542 321.916q-4.863 1.792-8.192 1.792-3.072-.255-6.912-3.072-4.864-4.608-3.328-9.216 1.792-4.863 8.448-9.472 4.608-2.816 6.656-3.072 2.304-.255 6.912 1.792 7.68 4.865 6.656 10.752-.768 5.888-10.24 10.496M92.404 356.476l-.768-.512q-.767-.255-2.048-.512-1.023-.255-2.56-.256-4.095-1.023-5.888-4.608-1.791-3.327-.768-7.424 1.024-1.023 1.536-4.352.512-3.327.512-5.376 1.025-2.048 1.28-2.816l1.28-5.12q.769-4.352 2.56-12.032 2.048-7.935 4.352-16.896 2.56-8.96 4.864-17.152 2.305-8.192 4.096-13.824 2.048-5.632 2.816-6.4v-2.816l.256-2.304q.513-2.56 2.56-5.632a53 53 0 0 0 1.792-6.144q.768-3.327.768-4.352 1.025-1.28 2.816-6.144a383 383 0 0 0 3.84-9.984 789 789 0 0 1 3.328-8.704q2.049-4.608 3.328-7.936l1.536-3.328v-1.28q1.024-1.023 4.864-10.24 4.096-9.471 11.008-24.32a70 70 0 0 1 2.56-4.608q1.536-2.56 1.536-3.584 1.28-2.047 3.584-1.792 2.304 0 4.608 1.536 2.56 1.536 3.84 4.352l2.56 4.096-9.216 18.432q-4.095 7.168-6.912 13.056-2.56 5.889-2.56 6.912l-1.536 4.096a1088 1088 0 0 0-3.584 9.728 407 407 0 0 0-3.584 10.24q-2.815 7.936-5.376 13.056-2.304 5.121-2.304 6.144 0-.512 5.632-.768 5.633-.256 14.336-.256h17.664q9.216-.255 16.128-.256 7.169-.255 9.728-.768l13.312-1.28 8.704-26.368q2.049-7.167 5.376-17.408 3.329-10.24 5.888-17.408 4.096-11.775 6.4-14.592 2.304-2.816 5.376-2.816.768 0 2.048.512 1.536.257 2.816 1.28 1.536.768 2.048 2.304 3.072 2.817 2.816 6.4 0 3.585-4.096 9.472-4.095 6.912-6.912 15.104-2.559 7.936-4.608 13.056 0 3.072-.768 5.12-.768 1.793-1.792 2.816-.512.513-2.048 3.84a112 112 0 0 0-2.816 6.656q-1.28 3.328-1.28 4.096 0 1.793-.768 4.352t-1.792 3.584q-.512 1.536-2.304 7.68a887 887 0 0 0-4.096 14.592 443 443 0 0 1-4.864 16.128q-2.559 7.68-4.608 12.8 0 1.793-1.28 4.608-1.28 2.56-1.28 4.608l-2.56 7.68q-1.536 4.608-1.536 5.888a398 398 0 0 1-2.816 12.032 424 424 0 0 1-2.304 10.496q-.768 4.608-.768 5.376-1.023 1.024-3.072.256a527 527 0 0 0-4.864-1.792q-4.863-2.815-5.888-6.144-.768-3.072 2.048-8.96 1.281-2.048 3.072-9.984a2258 2258 0 0 1 4.096-16.128q1.536-3.84 3.328-10.24l3.584-13.312a718 718 0 0 1 3.072-11.52q1.28-4.863 1.792-5.376v-2.56q-.511-.511-6.4-.768-5.888-.511-14.592-.256-8.703 0-18.176.512-9.216.257-16.64 1.28h-18.688000000000002l-1.792 5.376a525 525 0 0 0-3.584 11.264 1155 1155 0 0 1-4.352 13.312 401 401 0 0 0-3.584 12.288 617 617 0 0 0-1.792 7.68q-1.023 4.608-2.816 11.52a244 244 0 0 1-3.584 14.08q-1.791 7.424-3.328 12.8-1.28 5.376-1.792 6.912"/></svg>